<?xml version="1.0" standalone="no"?>
<!DOCTYPE svg PUBLIC "-//W3C//DTD SVG 20010904//EN"
 "http://www.w3.org/TR/2001/REC-SVG-20010904/DTD/svg10.dtd">
<svg version="1.0" xmlns="http://www.w3.org/2000/svg"
 width="1280.000000pt" height="1280.000000pt" viewBox="0 0 1280.000000 1280.000000"
 preserveAspectRatio="xMidYMid meet">
<metadata>
Created by potrace 1.14, written by Peter Selinger 2001-2017
</metadata>
<g transform="translate(0.000000,1280.000000) scale(0.100000,-0.100000)"
fill="#000000" stroke="none">
<path d="M0 6400 l0 -6400 6400 0 6400 0 0 6400 0 6400 -6400 0 -6400 0 0
-6400z m6828 3925 c610 -66 1218 -283 1722 -613 734 -481 1293 -1198 1578
-2024 75 -217 149 -520 177 -720 l6 -48 -984 0 -985 0 -36 113 c-188 581 -666
1065 -1249 1266 -970 334 -2018 -105 -2468 -1034 -32 -65 -75 -170 -95 -232
l-36 -113 -985 0 -984 0 6 48 c28 200 102 503 177 720 472 1369 1657 2371
3081 2606 84 14 208 30 277 36 69 6 143 12 165 14 84 8 496 -4 633 -19z m-153
-2524 c144 -29 214 -54 360 -126 397 -196 671 -553 767 -998 31 -146 31 -408
0 -554 -126 -582 -564 -1014 -1147 -1129 -124 -25 -386 -25 -510 0 -287 57
-554 197 -754 397 -195 195 -332 451 -393 732 -31 146 -31 408 0 554 133 615
620 1065 1238 1143 107 14 326 4 439 -19z m-2181 -2034 c20 -62 63 -167 95
-232 450 -929 1498 -1368 2468 -1034 583 201 1061 685 1249 1266 l36 113 985
0 984 0 -6 -47 c-13 -91 -64 -340 -95 -457 -121 -461 -358 -949 -647 -1333
-670 -893 -1637 -1446 -2745 -1570 -209 -23 -627 -23 -836 0 -1107 124 -2076
678 -2744 1567 -289 386 -526 875 -648 1336 -31 117 -82 366 -95 457 l-6 47
984 0 985 0 36 -113z"/>
</g>
</svg>
